<?xml version="1.0" encoding="UTF-8" standalone="no"?>
<svg
   width="88"
   height="31"
   viewBox="0 0 88 31"
   version="1.1"
   id="svg435"
   sodipodi:docname="Hosted by WikiTide.svg"
   inkscape:version="1.2.2 (732a01da63, 2022-12-09)"
   xmlns:inkscape="http://www.inkscape.org/namespaces/inkscape"
   xmlns:sodipodi="http://sodipodi.sourceforge.net/DTD/sodipodi-0.dtd"
   xmlns="http://www.w3.org/2000/svg"
   xmlns:svg="http://www.w3.org/2000/svg">
  <sodipodi:namedview
     id="namedview437"
     pagecolor="#ffffff"
     bordercolor="#000000"
     borderopacity="0.25"
     inkscape:showpageshadow="2"
     inkscape:pageopacity="0.0"
     inkscape:pagecheckerboard="0"
     inkscape:deskcolor="#d1d1d1"
     showgrid="false"
     inkscape:zoom="4.8613591"
     inkscape:cx="-8.0224479"
     inkscape:cy="6.3768175"
     inkscape:window-width="1920"
     inkscape:window-height="1009"
     inkscape:window-x="-8"
     inkscape:window-y="-8"
     inkscape:window-maximized="1"
     inkscape:current-layer="svg435" />
  <defs
     id="defs397">
    <linearGradient
       id="gradient-fill"
       x1="43.671"
       y1="0.188"
       x2="44.204"
       y2="30.688"
       gradientUnits="userSpaceOnUse">
      <stop
         id="stop4257"
         offset="0"
         style="stop-color:rgb(255, 255, 255); stop-opacity:1" />
      <stop
         id="stop4259"
         offset="1"
         style="stop-color:rgb(235, 235, 235); stop-opacity:1" />
    </linearGradient>
    <linearGradient
       id="gradient-stroke"
       x1="43.671"
       y1="0.188"
       x2="44.204"
       y2="30.688"
       gradientUnits="userSpaceOnUse">
      <stop
         id="stop4220"
         offset="0"
         style="stop-color:rgb(200, 200, 200); stop-opacity:1" />
      <stop
         id="stop4222"
         offset="1"
         style="stop-color:rgb(120, 120, 120); stop-opacity:1" />
    </linearGradient>
    <linearGradient
       id="gradient"
       x1="4"
       x2="31"
       y1="28"
       y2="3"
       gradientUnits="userSpaceOnUse">
      <stop
         offset="0%"
         stop-color="#0a00b2"
         id="stop388" />
      <stop
         offset="50%"
         stop-color="#ff0000"
         id="stop390" />
      <stop
         offset="100%"
         stop-color="#fffc00"
         id="stop392" />
    </linearGradient>
    <style
       id="style395">
			.button {
				fill: url(#gradient-fill);
				stroke-width: 0.5;
				stroke: url(#gradient-stroke);
			}
			.wordmark {
				fill: #000000;
			}
			.powered {
				fill: #000000;
			}
			.petals {
				fill: url(#gradient);
			}
			.petal {
				opacity: 0.65;
			}
		</style>
    <clipPath
       clipPathUnits="userSpaceOnUse"
       id="cp1">
      <path
         d="m 771,1000.5 c -119.49,132.75 -322.52,132.75 -442,0 C 183.59,838.94 75.62,645.16 13.3,433.89 -37.91,260.3 63.6,78.1 234.29,37.26 442.03,-12.45 657.97,-12.45 865.71,37.26 1036.4,78.1 1137.91,260.3 1086.7,433.89 1024.38,645.16 916.41,838.94 771,1000.5 Z"
         id="path2" />
    </clipPath>
    <linearGradient
       id="g1"
       x1="151260.14"
       y1="1058820.9"
       x2="1058821"
       y2="151260.09"
       href="#P"
       gradientTransform="scale(0.99993067,1.0000693)"
       gradientUnits="userSpaceOnUse">
      <stop
         stop-color="#342698"
         id="stop6" />
      <stop
         offset="1"
         stop-color="#3056b8"
         id="stop8" />
    </linearGradient>
  </defs>
  <path
     id="button"
     class="button"
     d="M4.96,0.2H82.9a4.78,4.78,0,0,1,4.78,4.78V25.92A4.78,4.78,0,0,1,82.9,30.7H4.96A4.78,4.78,0,0,1,.18,25.92V4.98A4.78,4.78,0,0,1,4.96.2Z" />
  <g
     clip-path="url(#cp1)"
     id="g25"
     transform="matrix(0.02364267,0,0,0.02364267,4.0093037,1.6690612)">
    <path
       class="a"
       d="m 771,1000.5 c -119.5,132.8 -322.5,132.8 -442,0 C 183.6,838.9 75.6,645.2 13.3,433.9 -37.9,260.3 63.6,78.1 234.3,37.3 442,-12.5 658,-12.5 865.7,37.3 c 170.7,40.8 272.2,223 221,396.6 -62.3,211.3 -170.3,405 -315.7,566.6 z"
       id="path15"
       style="fill:url(#g1)" />
    <path
       class="b"
       d="m 784.8,189.2 q 19.6,3.5 38.8,9.5 18.9,4.6 37.5,10.4 c -40.3,-2 -77.3,1.5 -111.1,11 -35.3,10.1 -65.9,25.8 -91.6,47.6 -27.3,22 -48,50.6 -61.6,86.5 -14.2,38.4 -18.1,82.8 -10.3,133.4 8.3,54.1 28.9,109.9 62.6,166.5 35.8,59.4 81.5,115.5 137,167 56.6,50.6 120,93.7 189,128.4 69.1,34.6 137.7,55.4 204.2,62.4 q -22.5,10.1 -46.6,20.7 -25.5,7 -54.9,10.8 c -53.7,6.8 -110.3,4.6 -169,-7.1 -59.7,-12 -118.6,-31.2 -175.9,-57.5 C 675.3,949.7 621.5,915.3 572.3,875.9 523.6,837.1 481.8,794 447,747.3 413.1,700 387.4,652.2 369.4,604.6 352.2,559 343.9,514.1 343.9,470.2 c 0,-41.5 7.4,-78.7 21.8,-111.8 13.5,-32.6 31.9,-60.2 54.9,-83.3 21.7,-21.9 47.1,-39.8 75.8,-54 27.3,-14.6 56.8,-24.9 88.6,-31.4 30.7,-6.2 63,-9.3 96.9,-9.7 33.1,-0.3 67.3,2.8 102.9,9.2 z"
       id="path17"
       style="fill:#ffffff;stroke:#ffffff;stroke-width:24;stroke-linejoin:round;paint-order:stroke fill markers" />
    <path
       class="c"
       d="m 265.1,547.9 q 3.9,-24.6 13,-45.6 6.6,-22.7 15.8,-43.6 c 1.7,60.2 13.5,119.1 35.1,176.4 20.9,55.1 48.5,105.6 82.6,151.4 31.4,43.4 68.2,81.2 110.1,113.6 40.5,31.2 83.5,54.5 129,70.5 44.1,15.5 87,22.7 129,22.2 41.1,-0.7 79.5,-7.9 115.5,-21.5 34.6,-14.1 66.3,-33.9 95.4,-59.5 29.1,-25.8 53.3,-57.1 72.7,-94.1 q -2.3,18.3 -4.7,36.9 -3.9,17.5 -9.7,35.2 c -10.2,31.2 -23.6,59.3 -40.2,84.7 -16.5,25.1 -35,47.3 -55.6,66.8 -21.6,18.9 -44.7,35 -69.5,48.3 -25,13.4 -51.5,23.2 -79.7,29.6 -29.7,6.1 -60,8.7 -91.2,7.8 -31.6,-1 -64,-6.4 -97.3,-16.4 -34,-10.3 -66.5,-24.6 -97.4,-43.1 -33,-19.3 -63.3,-42 -90.6,-67.9 -28.1,-26.6 -53.1,-56.4 -75,-89.3 -24.1,-34.4 -43.4,-70.7 -57.8,-108.9 -14.7,-39.4 -25,-80.3 -30.9,-122.9 -6,-43.7 -5.6,-87.3 1.4,-130.6 z"
       id="path19"
       style="fill:#ffffff" />
    <path
       class="c"
       d="m 302.9,741.6 c -4.7,-7.7 -10.1,-14.4 -16.2,-19.9 q -8.2,-10 -17.4,-18.4 c 11.8,31.8 17.5,63.7 17.9,94.5 0.3,27.4 -3.2,51.8 -9.9,73.3 -5.4,18.7 -13.4,34.6 -23.4,48.1 -9,12.1 -19.3,21.2 -30.8,27.9 -10.4,6.1 -21.1,9.8 -32.2,11.3 -10.4,1.4 -20.6,1.1 -30.9,-0.7 -9.6,-1.9 -19.3,-5.1 -29.1,-9.7 -9.6,-4.6 -19,-10.5 -28.3,-17.9 q 3.2,4 6.5,8 3.4,3.7 7.1,7.4 c 6.6,6.4 13.3,12 20.2,16.9 7,4.9 13.9,9.1 21,12.7 q 11,5.3 22.1,8.7 c 7.7,2.4 15.4,4 23.2,4.8 8.4,0.8 16.7,0.7 25.1,-0.2 8.7,-0.9 17.4,-3 26.2,-6.4 9.3,-3.5 18,-8.3 26,-14.4 9.1,-6.8 17.2,-14.8 24.1,-24.2 7.5,-10.1 13.7,-21.6 18.3,-34.6 5.8,-14.6 9.3,-30.3 10.3,-47 1,-18.2 -0.5,-37.5 -4.8,-57.5 -4.6,-21.7 -12.9,-42.8 -25,-62.7 z"
       id="path21"
       style="fill:#ffffff" />
    <path
       class="c"
       d="M 309.6,860.1 606,1059.1 589.8,1186.7 284.3,997.9 Z"
       id="path23"
       style="fill:#ffffff" />
  </g>
  <g
     id="g229"
     transform="matrix(0.01855929,0,0,0.01855929,12.419612,8.6055943)">
    <path
       d="m 2489.1,388.6 v 80.5 h 126.6 v 333.7 h 92 V 469.1 h 138.1 v -80.5 h -230.1 z"
       id="path34" />
    <path
       d="m 2351.1,503.7 h 92 v 299.1 h -92 z"
       id="path36" />
    <path
       d="m 2397.1,469.1 c -36.3,0 -51.8,-20.7 -51.8,-51.7 0,-31.1 15.5,-51.8 51.8,-51.8 36.2,0 51.8,20.7 51.8,51.8 0,31 -15.6,51.7 -51.8,51.7 z"
       id="path38" />
    <path
       d="m 2005.9,388.6 v 414.2 h 92.1 v -94.5 q 23.7,-2.6 44.9,-7.9 l 64.8,102.4 h 108.8 l -89.8,-142.1 c 44,-34.5 70.4,-86.8 76.8,-157 h -92.9 C 2201,570.6 2162,612.7 2098,625.8 V 388.6 Z"
       id="path40" />
    <path
       d="m 1844.9,503.7 h 92 v 299.1 h -92 z"
       id="path42" />
    <path
       d="m 1890.9,469.1 c -36.3,0 -51.8,-20.7 -51.8,-51.7 0,-31.1 15.5,-51.8 51.8,-51.8 36.2,0 51.7,20.7 51.7,51.8 0,31 -15.5,51.7 -51.7,51.7 z"
       id="path44" />
    <path
       fill-rule="evenodd"
       d="m 3340.5,388.6 v 414.2 h -92.1 v -23 c -17.2,23 -52.2,28.7 -74.7,28.7 -92.1,0 -143.9,-63.2 -143.9,-155.3 0,-92 51.8,-155.3 143.9,-155.3 22.5,0 57.5,5.8 74.7,28.8 V 388.6 Z m -218.6,264.6 c 0,44.3 17.3,74.8 63.3,74.8 46,0 63.3,-30.5 63.3,-74.8 0,-44.3 -17.3,-74.8 -63.3,-74.8 -46,0 -63.3,30.5 -63.3,74.8 z"
       id="path46" />
    <path
       d="m 1169.7,388.6 116,414.2 h 125.7 l 75.2,-276.7 75.2,276.7 h 125.7 l 116,-414.2 h -95.6 L 1624.6,694 1541.4,388.6 H 1431.8 L 1348.5,694 1265.3,388.6 Z"
       id="path48" />
    <path
       d="m 2891.8,503.7 h 92 v 299.1 h -92 z"
       id="path50" />
    <path
       d="m 2937.8,469.1 c -36.2,0 -51.8,-20.7 -51.8,-51.7 0,-31.1 15.6,-51.8 51.8,-51.8 36.3,0 51.8,20.7 51.8,51.8 0,31 -15.5,51.7 -51.8,51.7 z"
       id="path52" />
    <path
       fill-rule="evenodd"
       d="m 3691.4,653.2 q 0,14.9 -1.8,28.8 h -213.8 c 6.7,28.2 25.7,46 63.1,46 28.8,0 50.6,-9.1 60.4,-24.5 l 83.8,36.1 c -32,44.6 -72.3,68.9 -147,68.9 -103.6,0 -155.4,-63.2 -155.4,-155.3 0,-92 51.8,-155.3 155.4,-155.3 103.5,0 155.3,63.3 155.3,155.3 z m -215.6,-28.7 h 120.5 c -6.7,-28.2 -25,-46.1 -60.2,-46.1 -35.2,0 -53.6,17.9 -60.3,46.1 z"
       id="path54" />
  </g>
  <g
     aria-label="Hosted by"
     id="text885"
     style="font-size:10.6667px;letter-spacing:-0.32px;word-spacing:0.2px;fill:#800000;stroke-width:0.828979">
    <path
       d="M 34.312774,12.855146 V 6.1351252 h 0.981337 v 2.8266756 h 3.189343 V 6.1351252 h 0.981337 V 12.855146 H 38.483454 V 9.7938034 h -3.189343 v 3.0613426 z"
       style="font-family:Mukta;-inkscape-font-specification:'Mukta, Normal';fill:#000000"
       id="path444" />
    <path
       d="m 45.310146,10.295138 q 0,0.629336 -0.192001,1.130671 -0.192001,0.490668 -0.533335,0.832002 -0.330668,0.341335 -0.778669,0.522669 -0.448002,0.170667 -0.97067,0.170667 -0.522668,0 -0.97067,-0.160001 -0.437334,-0.170667 -0.768002,-0.490668 -0.320001,-0.330668 -0.512002,-0.800003 -0.181334,-0.480001 -0.181334,-1.09867 0,-0.629335 0.192001,-1.1200032 0.192001,-0.4906682 0.522668,-0.8213359 0.341335,-0.3413345 0.789336,-0.5120017 0.448002,-0.1813339 0.97067,-0.1813339 0.522668,0 0.960003,0.1600005 0.448001,0.1600005 0.768002,0.4800016 0.330668,0.320001 0.512002,0.8000025 0.192001,0.4693348 0.192001,1.0880031 z m -0.981337,0.05333 q 0,-0.5013351 -0.128,-0.8533362 Q 44.072808,9.1431347 43.859474,8.919134 43.656807,8.6951333 43.390139,8.599133 43.123472,8.492466 42.846138,8.492466 q -0.277334,0 -0.544002,0.085334 -0.266667,0.085334 -0.469335,0.2986676 -0.202667,0.213334 -0.330668,0.5760018 -0.117333,0.3520011 -0.117333,0.896003 0,0.501335 0.128,0.864003 0.128001,0.352001 0.330668,0.576001 0.213334,0.224001 0.480001,0.330668 0.266668,0.106667 0.544002,0.106667 0.277334,0 0.544002,-0.08533 0.266667,-0.096 0.469335,-0.309334 0.202667,-0.224001 0.320001,-0.576002 0.128,-0.362667 0.128,-0.906669 z"
       style="font-family:Mukta;-inkscape-font-specification:'Mukta, Normal';fill:#000000"
       id="path446" />
    <path
       d="M 48.947492,8.7804669 Q 48.595491,8.6097997 48.30749,8.5457995 q -0.288,-0.064 -0.576001,-0.064 -0.512002,0 -0.757336,0.1920006 -0.245334,0.1813339 -0.245334,0.4906682 0,0.2240007 0.170667,0.3946679 0.170667,0.1600005 0.714669,0.320001 l 0.320001,0.096 q 0.714669,0.2133337 1.077337,0.5546687 0.373334,0.330667 0.373334,0.906669 0,0.682669 -0.512001,1.09867 -0.501335,0.416002 -1.408005,0.416002 -0.480001,0 -0.928003,-0.08533 -0.437335,-0.08533 -0.757336,-0.234667 l 0.224001,-0.736003 q 0.309334,0.149334 0.672002,0.245334 0.362668,0.08533 0.736003,0.08533 0.480001,0 0.757335,-0.170667 0.288001,-0.170667 0.288001,-0.565335 0,-0.341335 -0.245334,-0.480002 -0.245334,-0.149334 -0.704002,-0.288001 L 47.17682,10.615139 q -0.693335,-0.224 -1.03467,-0.554668 -0.330667,-0.3413345 -0.330667,-0.8746695 0,-0.320001 0.138667,-0.5866685 0.138667,-0.2666675 0.373334,-0.4480015 0.245334,-0.1813339 0.576002,-0.2773342 0.330668,-0.106667 0.725336,-0.106667 0.373334,0 0.768002,0.074667 0.405335,0.064 0.768002,0.2240007 z"
       style="font-family:Mukta;-inkscape-font-specification:'Mukta, Normal';fill:#000000"
       id="path448" />
    <path
       d="m 52.787502,8.5457995 h -1.472005 v 2.9120095 q 0,0.373334 0.181334,0.501335 0.192001,0.128 0.490668,0.128 0.213334,0 0.469335,-0.04267 0.256001,-0.05333 0.448002,-0.117334 l 0.149333,0.714669 q -0.213334,0.08533 -0.544001,0.149334 -0.330668,0.064 -0.693336,0.064 -0.746669,0 -1.088003,-0.320001 -0.341335,-0.330667 -0.341335,-0.949336 V 8.5457995 H 49.640825 V 7.8417972 h 0.746669 v -1.600005 h 0.928003 v 1.600005 h 1.472005 z"
       style="font-family:Mukta;-inkscape-font-specification:'Mukta, Normal';fill:#000000"
       id="path450" />
    <path
       d="m 57.982189,10.455139 h -3.594678 v 0.04267 q 0,0.832002 0.448002,1.280004 0.458668,0.448001 1.237337,0.448001 0.405334,0 0.714669,-0.064 0.320001,-0.064 0.693335,-0.213334 l 0.192001,0.693335 q -0.309335,0.138668 -0.736003,0.224001 -0.416001,0.08533 -0.896002,0.08533 -0.544002,0 -1.024004,-0.149334 -0.469334,-0.149334 -0.832002,-0.458668 -0.362668,-0.320001 -0.576002,-0.810669 -0.202667,-0.490669 -0.202667,-1.173337 0,-0.586669 0.170667,-1.0666705 0.181334,-0.4800015 0.501335,-0.8106692 0.320001,-0.3413345 0.768002,-0.5226684 0.458668,-0.1920006 1.024003,-0.1920006 0.480002,0 0.864003,0.1600005 0.394668,0.1600005 0.672002,0.4480015 0.277334,0.2880009 0.426668,0.6933355 0.149334,0.4053346 0.149334,0.8960028 z m -0.97067,-0.6720023 q 0,-0.2773342 -0.07467,-0.5120016 -0.064,-0.2453341 -0.213334,-0.426668 -0.138667,-0.1813339 -0.362667,-0.2880009 -0.224001,-0.106667 -0.544002,-0.106667 -0.586669,0 -0.960003,0.3733345 -0.362668,0.3733345 -0.448002,0.9813364 z"
       style="font-family:Mukta;-inkscape-font-specification:'Mukta, Normal';fill:#000000"
       id="path452" />
    <path
       d="m 62.152858,5.2817892 h 0.93867 v 7.5733568 h -0.789336 l -0.117334,-0.554668 h -0.032 q -0.330667,0.341334 -0.672002,0.501335 -0.330668,0.149334 -0.842669,0.149334 -0.405335,0 -0.789336,-0.160001 -0.373335,-0.16 -0.672002,-0.480001 -0.298668,-0.320001 -0.480002,-0.800003 -0.181334,-0.490668 -0.181334,-1.152003 0,-0.586669 0.149334,-1.0666705 0.160001,-0.4800015 0.448002,-0.8213359 0.288001,-0.3413345 0.704002,-0.5226684 0.416001,-0.1813339 0.949336,-0.1813339 0.394668,0 0.746669,0.1280004 0.362668,0.1173337 0.640002,0.3626679 z m 0,3.7653452 q -0.501335,-0.5653351 -1.184004,-0.5653351 -0.288,0 -0.565335,0.106667 -0.266667,0.096 -0.480001,0.320001 -0.202667,0.2240007 -0.330668,0.5760018 -0.128,0.3520011 -0.128,0.8426689 0,0.512002 0.117333,0.87467 0.117334,0.352001 0.309335,0.586668 0.202667,0.224001 0.448001,0.330668 0.256001,0.106667 0.512002,0.106667 0.800002,0 1.301337,-0.693335 z"
       style="font-family:Mukta;-inkscape-font-specification:'Mukta, Normal';fill:#000000"
       id="path454" />
    <path
       d="m 71.099549,10.348472 q 0,0.597335 -0.181334,1.077337 -0.181334,0.480001 -0.490668,0.821335 -0.309334,0.341335 -0.725336,0.522669 -0.416001,0.181334 -0.885336,0.181334 -0.490668,0 -0.864003,-0.138667 -0.362667,-0.138667 -0.682668,-0.426668 h -0.02133 l -0.096,0.469334 H 66.480868 V 5.2817892 h 0.928003 v 3.1893434 q 0.341334,-0.3626679 0.746669,-0.5333351 0.416001,-0.1706672 0.864002,-0.1706672 0.960003,0 1.514672,0.6826689 0.565335,0.6826688 0.565335,1.8986728 z m -0.981336,0.01067 q 0,-0.8320031 -0.352002,-1.3226713 -0.352001,-0.5013349 -0.992003,-0.5013349 -0.405334,0 -0.736002,0.1813339 -0.330668,0.1813339 -0.629335,0.5120016 v 2.4320077 q 0.224,0.256001 0.501335,0.416001 0.288001,0.149334 0.661335,0.149334 0.298668,0 0.576002,-0.106667 0.288001,-0.106667 0.501335,-0.330668 0.213334,-0.234667 0.341334,-0.586668 0.128001,-0.352001 0.128001,-0.842669 z"
       style="font-family:Mukta;-inkscape-font-specification:'Mukta, Normal';fill:#000000"
       id="path456" />
    <path
       d="m 71.227569,7.8417972 h 1.00267 l 1.06667,2.8693428 0.362668,1.19467 h 0.02133 l 0.362668,-1.19467 0.97067,-2.8693428 h 0.960003 l -1.930673,5.4400168 q -0.320001,0.90667 -0.810669,1.418672 -0.480002,0.512001 -1.152004,0.746669 l -0.405334,-0.746669 q 0.501335,-0.192001 0.885336,-0.554669 0.394668,-0.362668 0.608002,-1.00267 l 0.096,-0.288001 z"
       style="font-family:Mukta;-inkscape-font-specification:'Mukta, Normal';fill:#000000"
       id="path458" />
  </g>
</svg>
